<svg height="40" viewBox="0 0 40 40" width="40" xmlns="http://www.w3.org/2000/svg"><g fill="none" fill-rule="evenodd"><circle cx="20" cy="20" fill="#89be05" r="20"/><path d="m16.703125 13.1128145c.34375 0 .609375-.2597168.609375-.5627198s-.265625-.5627198-.609375-.5627198c-.328125 0-.59375.2597168-.59375.5627198s.265625.5627198.59375.5627198zm6.59375 0c.328125 0 .59375-.2597168.59375-.5627198s-.265625-.5627198-.59375-.5627198c-.34375 0-.609375.2597168-.609375.5627198s.265625.5627198.609375.5627198zm-12.6875 2.6548832c.875 0 1.59375.6637208 1.59375 1.4717288v6.2043466c0 .8224367-.703125 1.4861575-1.59375 1.4861575s-1.609375-.6637208-1.609375-1.4861575v-6.2043466c0-.808008.71875-1.4717288 1.609375-1.4717288zm16.5625.2741456v9.6095229c0 .8801515-.765625 1.5871585-1.703125 1.5871585h-1.171875v3.2753178c0 .8224367-.71875 1.4861575-1.609375 1.4861575s-1.609375-.6637208-1.609375-1.4861575v-3.2753178h-2.15625v3.2753178c0 .8224367-.71875 1.4861575-1.609375 1.4861575-.875 0-1.59375-.6637208-1.59375-1.4861575l-.015625-3.2753178h-1.15625c-.953125 0-1.71875-.707007-1.71875-1.5871585v-9.6095229zm-3.625-5.8436289c2.1875 1.0388674 3.671875 3.0300298 3.671875 5.3241952h-14.453125c0-2.2941654 1.484375-4.2853278 3.6875-5.3241952l-1.109375-1.89016137c-.0625-.101001-.03125-.23085941.078125-.28857427.109375-.04328614.25-.01442871.3125.08657228l1.125 1.90459016c.953125-.38957528 2.015625-.60600598 3.140625-.60600598s2.1875.2164307 3.140625.60600598l1.125-1.90459016c.0625-.10100099.203125-.12985842.3125-.08657228.109375.05771486.140625.18757327.078125.28857427zm7.453125 7.0412121v6.2043466c0 .8224367-.71875 1.4861575-1.609375 1.4861575-.875 0-1.59375-.6637208-1.59375-1.4861575v-6.2043466c0-.8224367.71875-1.4717288 1.59375-1.4717288.890625 0 1.609375.6492921 1.609375 1.4717288z" fill="#fff" fill-rule="nonzero"/></g></svg>