<svg xmlns="http://www.w3.org/2000/svg" width="40" height="40" viewBox="0 0 40 40">
  <g fill="none" fill-rule="evenodd">
    <circle cx="20" cy="20" r="20" fill="#000000"/>
    <path fill="#FFFFFF" fill-rule="nonzero" d="M30,25.5240385 C29.6410625,26.6634615 29.0667624,27.875 28.2340273,29.1298077 C26.9992821,31.0192308 25.764537,31.9567308 24.5441493,31.9567308 C24.0559943,31.9567308 23.3955492,31.7980769 22.5340991,31.4951923 C21.6870065,31.1778846 20.9547739,31.0336538 20.3661163,31.0336538 C19.7918162,31.0336538 19.1026561,31.1923077 18.327351,31.5096154 C17.5376884,31.8413462 16.9059584,32 16.4321608,32 C14.9533381,32 13.5319454,30.7451923 12.1105528,28.2644231 C10.7178751,25.7836538 10,23.375 10,21.0096154 C10,18.8028846 10.5455851,17.0144231 11.6223977,15.6153846 C12.6992103,14.2307692 14.0488155,13.5384615 15.6999282,13.5384615 C16.4034458,13.5384615 17.2361809,13.6826923 18.241206,13.9711538 C19.2318737,14.2596154 19.8923187,14.4038462 20.2225413,14.4038462 C20.6389088,14.4038462 21.3280689,14.2451923 22.275664,13.9134615 C23.2232592,13.5961538 24.0559943,13.4230769 24.7595118,13.4230769 C25.908112,13.4230769 26.9274946,13.7403846 27.8176597,14.3605769 C28.3201723,14.7067308 28.8226849,15.1971154 29.3108399,15.8028846 C28.5642498,16.4375 28.0186648,17 27.6740847,17.5048077 C27.0567121,18.3990385 26.7408471,19.3942308 26.7408471,20.4903846 C26.7408471,21.6730769 27.0710696,22.7548077 27.7315147,23.7067308 C28.3919598,24.6586538 29.1529074,25.2644231 30,25.5240385 Z M24.6015793,8.60576923 C24.6015793,9.19711538 24.4580043,9.86057692 24.1852118,10.5673077 C23.8980617,11.2884615 23.4529792,11.9519231 22.8499641,12.5576923 C22.333094,13.0769231 21.816224,13.4230769 21.2993539,13.5961538 C20.9691314,13.6971154 20.4809763,13.7836538 19.8061737,13.8413462 C19.8348887,12.4134615 20.2081838,11.1730769 20.9260589,10.1346154 C21.643934,9.09615385 22.8499641,8.38942308 24.5154343,8 C24.5441493,8.12980769 24.5728643,8.23076923 24.5872218,8.31730769 C24.5872218,8.41826923 24.6015793,8.50480769 24.6015793,8.60576923 Z"/>
  </g>
</svg>
