<svg height="40" viewBox="0 0 40 40" width="40" xmlns="http://www.w3.org/2000/svg"><g fill="none" fill-rule="evenodd"><circle cx="20" cy="20" fill="#0e75cb" r="20"/><path d="m16.6248245 27.7165524v-17.7165524s7.8780651 1.4707578 8.9281507 5.0129866c1.0505968 3.5425137-.5865044 5.8370252-1.1604865 5.9042845-1.6036231.1863881-1.9755499-1.0244233-1.9755499-1.0244233v-5.2010977l-2.1848526-.7314264v16.0396763zm5.0889817-.2426384v1.9548263s7.8473325-2.7944277 9.0635305-3.943821c1.2164536-1.1496782-2.8471658-4.0081989-5.0306489-3.4493197 0 0-1.9298992.0207553-4.0328816 1.0444649-.0199336.0094049 0 1.9357648 0 1.9357648l4.9447106-1.3021668 1.8793697.9322255zm-9.2078068.4346206c-2.4047959-.0313497-4.53333412-.7771871-4.50573393-2.3925506.02734467-1.6159334 3.23219543-3.2584948 7.21250313-4.0043321v2.2077667l-3.4811084 1.1747018s-.7237388 1.0265595.2491685 1.0564842c2.2110834.0689692 3.2319399-.4346206 3.2319399-.4346206v1.9661261s-.3019734.4577741-2.7067692.4264245z" fill="#fff" fill-rule="nonzero"/></g></svg>