<svg xmlns="http://www.w3.org/2000/svg" width="40" height="40" viewBox="0 0 40 40">
  <g fill="none" fill-rule="evenodd">
    <circle cx="20" cy="20" r="20" fill="#227A1B"/>
    <path fill="#FFFFFF" d="M23.9999993,12.0000472 C24.0004582,14.6204185 23.1382892,17.1680699 21.5466161,19.2496296 C22.1111456,16.5099646 18.7207022,10.7924613 15.0005943,6.77779694 C14.956808,6.73059697 14.9134349,6.69194366 14.8696486,6.64571702 C16.3237846,5.15643594 18.0007038,3.90238222 19.8402812,2.9285192 C22.4821852,5.20197159 24.0011805,8.51460191 23.9999993,12.0000472 Z M12.5914642,3.95545193 C12.2823539,4.14766716 11.8913013,4.14925074 11.5806444,3.95954526 C8.93295593,2.34065288 6.75363754,2.12735967 6.09630871,1.56005333 C9.97896214,-0.645798913 14.7674401,-0.503283121 18.5120369,1.92957312 C16.4019648,2.10780646 14.3684058,2.80364184 12.5914642,3.95545193 Z M9.16676766,6.77779694 C5.22424802,10.9683145 1.71572541,17.0929776 2.74689167,19.6402694 C-1.32137122,14.7202672 -0.81533598,7.47400404 3.89727045,3.16721239 C4.41923067,3.04884078 4.96688206,3.16153278 5.39970015,3.47637221 C6.79232244,4.41345883 8.09935072,5.47186042 9.30551338,6.63921036 C9.25938036,6.68722366 9.21283401,6.72889031 9.16676766,6.77779694 Z M12.0839077,9.1944622 C16.0724803,12.7717001 21.3138177,17.4893773 20.8279811,20.1082691 C18.609787,22.5333685 15.4921822,23.9399157 12.2061465,23.9981197 C8.92011082,24.0563237 5.75465074,22.7610655 3.45196684,20.4160423 C2.6066793,17.9272037 8.12193482,12.7009801 12.0834143,9.1944622 L12.0836677,9.1942222 L12.0839077,9.1944622 Z" transform="translate(8 8)"/>
  </g>
</svg>
